<mxfile host="app.diagrams.net" modified="2021-06-21T17:25:30.215Z" agent="5.0 (Windows NT 10.0; Win64; x64) AppleWebKit/537.36 (KHTML, like Gecko) Chrome/91.0.4472.106 Safari/537.36" etag="uojKs0wY80wA9IUEgKGF" version="14.8.0" type="github" pages="3">
  <diagram id="Vywnfqq46tUQ-HE7cAHF" name="Страница 1">
    <mxGraphModel dx="1422" dy="762" grid="1" gridSize="10" guides="1" tooltips="1" connect="1" arrows="1" fold="1" page="1" pageScale="1" pageWidth="827" pageHeight="1169" math="0" shadow="0">
      <root>
        <mxCell id="0" />
        <mxCell id="1" parent="0" />
        <mxCell id="_ZdgKzZlL65n7Ko-tW3_-16" value="" style="edgeStyle=orthogonalEdgeStyle;rounded=0;orthogonalLoop=1;jettySize=auto;html=1;" edge="1" parent="1" source="_ZdgKzZlL65n7Ko-tW3_-1" target="_ZdgKzZlL65n7Ko-tW3_-4">
          <mxGeometry relative="1" as="geometry" />
        </mxCell>
        <mxCell id="_ZdgKzZlL65n7Ko-tW3_-1" value="Начало" style="ellipse;whiteSpace=wrap;html=1;" vertex="1" parent="1">
          <mxGeometry x="340" y="30" width="120" height="80" as="geometry" />
        </mxCell>
        <mxCell id="_ZdgKzZlL65n7Ko-tW3_-2" value="Конец" style="ellipse;whiteSpace=wrap;html=1;" vertex="1" parent="1">
          <mxGeometry x="330" y="520" width="120" height="80" as="geometry" />
        </mxCell>
        <mxCell id="_ZdgKzZlL65n7Ko-tW3_-42" value="" style="edgeStyle=orthogonalEdgeStyle;rounded=0;orthogonalLoop=1;jettySize=auto;html=1;" edge="1" parent="1" source="_ZdgKzZlL65n7Ko-tW3_-3" target="_ZdgKzZlL65n7Ko-tW3_-2">
          <mxGeometry relative="1" as="geometry" />
        </mxCell>
        <mxCell id="_ZdgKzZlL65n7Ko-tW3_-3" value="Вывод" style="shape=parallelogram;perimeter=parallelogramPerimeter;whiteSpace=wrap;html=1;fixedSize=1;" vertex="1" parent="1">
          <mxGeometry x="330" y="370" width="120" height="60" as="geometry" />
        </mxCell>
        <mxCell id="_ZdgKzZlL65n7Ko-tW3_-23" style="edgeStyle=orthogonalEdgeStyle;rounded=0;orthogonalLoop=1;jettySize=auto;html=1;" edge="1" parent="1" source="_ZdgKzZlL65n7Ko-tW3_-4" target="_ZdgKzZlL65n7Ko-tW3_-17">
          <mxGeometry relative="1" as="geometry" />
        </mxCell>
        <mxCell id="_ZdgKzZlL65n7Ko-tW3_-24" style="edgeStyle=orthogonalEdgeStyle;rounded=0;orthogonalLoop=1;jettySize=auto;html=1;entryX=0.675;entryY=0.017;entryDx=0;entryDy=0;entryPerimeter=0;" edge="1" parent="1" source="_ZdgKzZlL65n7Ko-tW3_-4" target="_ZdgKzZlL65n7Ko-tW3_-18">
          <mxGeometry relative="1" as="geometry" />
        </mxCell>
        <mxCell id="_ZdgKzZlL65n7Ko-tW3_-27" value="" style="edgeStyle=orthogonalEdgeStyle;rounded=0;orthogonalLoop=1;jettySize=auto;html=1;" edge="1" parent="1" source="_ZdgKzZlL65n7Ko-tW3_-4" target="_ZdgKzZlL65n7Ko-tW3_-19">
          <mxGeometry relative="1" as="geometry">
            <Array as="points">
              <mxPoint x="400" y="230" />
              <mxPoint x="400" y="230" />
            </Array>
          </mxGeometry>
        </mxCell>
        <mxCell id="_ZdgKzZlL65n7Ko-tW3_-28" style="edgeStyle=orthogonalEdgeStyle;rounded=0;orthogonalLoop=1;jettySize=auto;html=1;" edge="1" parent="1" source="_ZdgKzZlL65n7Ko-tW3_-4">
          <mxGeometry relative="1" as="geometry">
            <mxPoint x="550" y="220" as="targetPoint" />
            <Array as="points">
              <mxPoint x="550" y="170" />
            </Array>
          </mxGeometry>
        </mxCell>
        <mxCell id="_ZdgKzZlL65n7Ko-tW3_-29" style="edgeStyle=orthogonalEdgeStyle;rounded=0;orthogonalLoop=1;jettySize=auto;html=1;entryX=0.75;entryY=0;entryDx=0;entryDy=0;" edge="1" parent="1" source="_ZdgKzZlL65n7Ko-tW3_-4" target="_ZdgKzZlL65n7Ko-tW3_-21">
          <mxGeometry relative="1" as="geometry" />
        </mxCell>
        <mxCell id="_ZdgKzZlL65n7Ko-tW3_-4" value="Ввод&lt;br&gt;Введите цифры 5 и 6" style="shape=parallelogram;perimeter=parallelogramPerimeter;whiteSpace=wrap;html=1;fixedSize=1;" vertex="1" parent="1">
          <mxGeometry x="305" y="140" width="190" height="60" as="geometry" />
        </mxCell>
        <mxCell id="_ZdgKzZlL65n7Ko-tW3_-34" value="" style="edgeStyle=orthogonalEdgeStyle;rounded=0;orthogonalLoop=1;jettySize=auto;html=1;" edge="1" parent="1" source="_ZdgKzZlL65n7Ko-tW3_-17" target="_ZdgKzZlL65n7Ko-tW3_-33">
          <mxGeometry relative="1" as="geometry" />
        </mxCell>
        <mxCell id="_ZdgKzZlL65n7Ko-tW3_-17" value="Операция&lt;br&gt;5&amp;amp;6" style="rounded=0;whiteSpace=wrap;html=1;" vertex="1" parent="1">
          <mxGeometry x="180" y="230" width="120" height="60" as="geometry" />
        </mxCell>
        <mxCell id="_ZdgKzZlL65n7Ko-tW3_-36" value="" style="edgeStyle=orthogonalEdgeStyle;rounded=0;orthogonalLoop=1;jettySize=auto;html=1;" edge="1" parent="1" source="_ZdgKzZlL65n7Ko-tW3_-18" target="_ZdgKzZlL65n7Ko-tW3_-35">
          <mxGeometry relative="1" as="geometry" />
        </mxCell>
        <mxCell id="_ZdgKzZlL65n7Ko-tW3_-18" value="Операция&amp;nbsp;&lt;br&gt;5 | 6" style="rounded=0;whiteSpace=wrap;html=1;" vertex="1" parent="1">
          <mxGeometry x="30" y="230" width="120" height="60" as="geometry" />
        </mxCell>
        <mxCell id="_ZdgKzZlL65n7Ko-tW3_-32" value="" style="edgeStyle=orthogonalEdgeStyle;rounded=0;orthogonalLoop=1;jettySize=auto;html=1;" edge="1" parent="1" source="_ZdgKzZlL65n7Ko-tW3_-19" target="_ZdgKzZlL65n7Ko-tW3_-3">
          <mxGeometry relative="1" as="geometry" />
        </mxCell>
        <mxCell id="_ZdgKzZlL65n7Ko-tW3_-19" value="Операция&lt;br&gt;5 ^ 6" style="rounded=0;whiteSpace=wrap;html=1;" vertex="1" parent="1">
          <mxGeometry x="330" y="230" width="120" height="60" as="geometry" />
        </mxCell>
        <mxCell id="_ZdgKzZlL65n7Ko-tW3_-38" value="" style="edgeStyle=orthogonalEdgeStyle;rounded=0;orthogonalLoop=1;jettySize=auto;html=1;" edge="1" parent="1" source="_ZdgKzZlL65n7Ko-tW3_-20" target="_ZdgKzZlL65n7Ko-tW3_-37">
          <mxGeometry relative="1" as="geometry" />
        </mxCell>
        <mxCell id="_ZdgKzZlL65n7Ko-tW3_-20" value="5 &amp;lt;&amp;lt; 2" style="rounded=0;whiteSpace=wrap;html=1;" vertex="1" parent="1">
          <mxGeometry x="480" y="230" width="120" height="60" as="geometry" />
        </mxCell>
        <mxCell id="_ZdgKzZlL65n7Ko-tW3_-40" value="" style="edgeStyle=orthogonalEdgeStyle;rounded=0;orthogonalLoop=1;jettySize=auto;html=1;" edge="1" parent="1" source="_ZdgKzZlL65n7Ko-tW3_-21" target="_ZdgKzZlL65n7Ko-tW3_-39">
          <mxGeometry relative="1" as="geometry" />
        </mxCell>
        <mxCell id="_ZdgKzZlL65n7Ko-tW3_-21" value="5 &amp;gt;&amp;gt; 2" style="rounded=0;whiteSpace=wrap;html=1;" vertex="1" parent="1">
          <mxGeometry x="630" y="230" width="120" height="60" as="geometry" />
        </mxCell>
        <mxCell id="_ZdgKzZlL65n7Ko-tW3_-33" value="Вывод" style="shape=parallelogram;perimeter=parallelogramPerimeter;whiteSpace=wrap;html=1;fixedSize=1;rounded=0;" vertex="1" parent="1">
          <mxGeometry x="180" y="370" width="120" height="60" as="geometry" />
        </mxCell>
        <mxCell id="_ZdgKzZlL65n7Ko-tW3_-35" value="Вывод" style="shape=parallelogram;perimeter=parallelogramPerimeter;whiteSpace=wrap;html=1;fixedSize=1;rounded=0;" vertex="1" parent="1">
          <mxGeometry x="30" y="370" width="120" height="60" as="geometry" />
        </mxCell>
        <mxCell id="_ZdgKzZlL65n7Ko-tW3_-37" value="Вывод" style="shape=parallelogram;perimeter=parallelogramPerimeter;whiteSpace=wrap;html=1;fixedSize=1;rounded=0;" vertex="1" parent="1">
          <mxGeometry x="480" y="370" width="120" height="60" as="geometry" />
        </mxCell>
        <mxCell id="_ZdgKzZlL65n7Ko-tW3_-39" value="Вывод" style="shape=parallelogram;perimeter=parallelogramPerimeter;whiteSpace=wrap;html=1;fixedSize=1;rounded=0;" vertex="1" parent="1">
          <mxGeometry x="630" y="370" width="120" height="60" as="geometry" />
        </mxCell>
      </root>
    </mxGraphModel>
  </diagram>
  <diagram id="Ql-FhTPaMFxN2fjxQd2F" name="Страница 2">
    <mxGraphModel dx="1422" dy="762" grid="1" gridSize="10" guides="1" tooltips="1" connect="1" arrows="1" fold="1" page="1" pageScale="1" pageWidth="827" pageHeight="1169" math="0" shadow="0">
      <root>
        <mxCell id="DMsjzMJKJMLas8UG76rK-0" />
        <mxCell id="DMsjzMJKJMLas8UG76rK-1" parent="DMsjzMJKJMLas8UG76rK-0" />
        <mxCell id="DMsjzMJKJMLas8UG76rK-5" value="" style="edgeStyle=orthogonalEdgeStyle;rounded=0;orthogonalLoop=1;jettySize=auto;html=1;" edge="1" parent="DMsjzMJKJMLas8UG76rK-1" source="DMsjzMJKJMLas8UG76rK-3" target="DMsjzMJKJMLas8UG76rK-4">
          <mxGeometry relative="1" as="geometry" />
        </mxCell>
        <mxCell id="DMsjzMJKJMLas8UG76rK-3" value="Начало" style="ellipse;whiteSpace=wrap;html=1;" vertex="1" parent="DMsjzMJKJMLas8UG76rK-1">
          <mxGeometry x="354" y="20" width="120" height="80" as="geometry" />
        </mxCell>
        <mxCell id="DMsjzMJKJMLas8UG76rK-7" value="" style="edgeStyle=orthogonalEdgeStyle;rounded=0;orthogonalLoop=1;jettySize=auto;html=1;" edge="1" parent="DMsjzMJKJMLas8UG76rK-1" source="DMsjzMJKJMLas8UG76rK-4" target="DMsjzMJKJMLas8UG76rK-6">
          <mxGeometry relative="1" as="geometry" />
        </mxCell>
        <mxCell id="DMsjzMJKJMLas8UG76rK-4" value="Ввод данных координат первой точки" style="shape=parallelogram;perimeter=parallelogramPerimeter;whiteSpace=wrap;html=1;fixedSize=1;" vertex="1" parent="DMsjzMJKJMLas8UG76rK-1">
          <mxGeometry x="269" y="140" width="290" height="70" as="geometry" />
        </mxCell>
        <mxCell id="DMsjzMJKJMLas8UG76rK-9" value="" style="edgeStyle=orthogonalEdgeStyle;rounded=0;orthogonalLoop=1;jettySize=auto;html=1;" edge="1" parent="DMsjzMJKJMLas8UG76rK-1" source="DMsjzMJKJMLas8UG76rK-6" target="DMsjzMJKJMLas8UG76rK-8">
          <mxGeometry relative="1" as="geometry" />
        </mxCell>
        <mxCell id="DMsjzMJKJMLas8UG76rK-6" value="Ввод данных координат второй точки" style="shape=parallelogram;perimeter=parallelogramPerimeter;whiteSpace=wrap;html=1;fixedSize=1;" vertex="1" parent="DMsjzMJKJMLas8UG76rK-1">
          <mxGeometry x="270" y="270" width="290" height="60" as="geometry" />
        </mxCell>
        <mxCell id="DMsjzMJKJMLas8UG76rK-11" value="" style="edgeStyle=orthogonalEdgeStyle;rounded=0;orthogonalLoop=1;jettySize=auto;html=1;" edge="1" parent="DMsjzMJKJMLas8UG76rK-1" source="DMsjzMJKJMLas8UG76rK-8" target="DMsjzMJKJMLas8UG76rK-10">
          <mxGeometry relative="1" as="geometry" />
        </mxCell>
        <mxCell id="DMsjzMJKJMLas8UG76rK-14" value="" style="edgeStyle=orthogonalEdgeStyle;rounded=0;orthogonalLoop=1;jettySize=auto;html=1;" edge="1" parent="DMsjzMJKJMLas8UG76rK-1" source="DMsjzMJKJMLas8UG76rK-8" target="DMsjzMJKJMLas8UG76rK-13">
          <mxGeometry relative="1" as="geometry" />
        </mxCell>
        <mxCell id="DMsjzMJKJMLas8UG76rK-8" value="x1 = x2" style="rhombus;whiteSpace=wrap;html=1;" vertex="1" parent="DMsjzMJKJMLas8UG76rK-1">
          <mxGeometry x="374" y="390" width="80" height="80" as="geometry" />
        </mxCell>
        <mxCell id="DMsjzMJKJMLas8UG76rK-20" style="edgeStyle=orthogonalEdgeStyle;rounded=0;orthogonalLoop=1;jettySize=auto;html=1;entryX=0.6;entryY=-0.067;entryDx=0;entryDy=0;entryPerimeter=0;" edge="1" parent="DMsjzMJKJMLas8UG76rK-1" source="DMsjzMJKJMLas8UG76rK-10" target="DMsjzMJKJMLas8UG76rK-16">
          <mxGeometry relative="1" as="geometry">
            <mxPoint x="420" y="600" as="targetPoint" />
          </mxGeometry>
        </mxCell>
        <mxCell id="DMsjzMJKJMLas8UG76rK-10" value="k = (y1 - y2) /&amp;nbsp;&lt;br&gt;(x1 - x2" style="whiteSpace=wrap;html=1;" vertex="1" parent="DMsjzMJKJMLas8UG76rK-1">
          <mxGeometry x="510" y="480" width="120" height="60" as="geometry" />
        </mxCell>
        <mxCell id="DMsjzMJKJMLas8UG76rK-12" value="Нет" style="text;html=1;strokeColor=none;fillColor=none;align=center;verticalAlign=middle;whiteSpace=wrap;rounded=0;" vertex="1" parent="DMsjzMJKJMLas8UG76rK-1">
          <mxGeometry x="500" y="400" width="40" height="20" as="geometry" />
        </mxCell>
        <mxCell id="DMsjzMJKJMLas8UG76rK-19" style="edgeStyle=orthogonalEdgeStyle;rounded=0;orthogonalLoop=1;jettySize=auto;html=1;entryX=0.5;entryY=0;entryDx=0;entryDy=0;" edge="1" parent="DMsjzMJKJMLas8UG76rK-1" source="DMsjzMJKJMLas8UG76rK-13" target="DMsjzMJKJMLas8UG76rK-16">
          <mxGeometry relative="1" as="geometry" />
        </mxCell>
        <mxCell id="DMsjzMJKJMLas8UG76rK-13" value="k = 0" style="whiteSpace=wrap;html=1;" vertex="1" parent="DMsjzMJKJMLas8UG76rK-1">
          <mxGeometry x="220" y="480" width="120" height="60" as="geometry" />
        </mxCell>
        <mxCell id="DMsjzMJKJMLas8UG76rK-15" value="Да" style="text;html=1;strokeColor=none;fillColor=none;align=center;verticalAlign=middle;whiteSpace=wrap;rounded=0;" vertex="1" parent="DMsjzMJKJMLas8UG76rK-1">
          <mxGeometry x="320" y="400" width="40" height="20" as="geometry" />
        </mxCell>
        <mxCell id="DMsjzMJKJMLas8UG76rK-22" value="" style="edgeStyle=orthogonalEdgeStyle;rounded=0;orthogonalLoop=1;jettySize=auto;html=1;" edge="1" parent="DMsjzMJKJMLas8UG76rK-1" source="DMsjzMJKJMLas8UG76rK-16" target="DMsjzMJKJMLas8UG76rK-21">
          <mxGeometry relative="1" as="geometry" />
        </mxCell>
        <mxCell id="DMsjzMJKJMLas8UG76rK-16" value="b = (y2 - k*x2)" style="rounded=0;whiteSpace=wrap;html=1;" vertex="1" parent="DMsjzMJKJMLas8UG76rK-1">
          <mxGeometry x="354" y="585" width="120" height="60" as="geometry" />
        </mxCell>
        <mxCell id="DMsjzMJKJMLas8UG76rK-24" value="" style="edgeStyle=orthogonalEdgeStyle;rounded=0;orthogonalLoop=1;jettySize=auto;html=1;" edge="1" parent="DMsjzMJKJMLas8UG76rK-1" source="DMsjzMJKJMLas8UG76rK-21" target="DMsjzMJKJMLas8UG76rK-23">
          <mxGeometry relative="1" as="geometry" />
        </mxCell>
        <mxCell id="DMsjzMJKJMLas8UG76rK-21" value="Вывод уравнения&lt;br&gt;y = k*x + b" style="shape=parallelogram;perimeter=parallelogramPerimeter;whiteSpace=wrap;html=1;fixedSize=1;rounded=0;" vertex="1" parent="DMsjzMJKJMLas8UG76rK-1">
          <mxGeometry x="320" y="725" width="190" height="60" as="geometry" />
        </mxCell>
        <mxCell id="DMsjzMJKJMLas8UG76rK-23" value="Конец" style="ellipse;whiteSpace=wrap;html=1;rounded=0;" vertex="1" parent="DMsjzMJKJMLas8UG76rK-1">
          <mxGeometry x="355" y="865" width="120" height="60" as="geometry" />
        </mxCell>
      </root>
    </mxGraphModel>
  </diagram>
  <diagram id="HhNLS13u0ajb6OrMEUql" name="Страница 3">
    <mxGraphModel dx="1422" dy="762" grid="1" gridSize="10" guides="1" tooltips="1" connect="1" arrows="1" fold="1" page="1" pageScale="1" pageWidth="827" pageHeight="1169" math="0" shadow="0">
      <root>
        <mxCell id="TYjafor36wQTe4I6JeaP-0" />
        <mxCell id="TYjafor36wQTe4I6JeaP-1" parent="TYjafor36wQTe4I6JeaP-0" />
        <mxCell id="TYjafor36wQTe4I6JeaP-4" value="" style="edgeStyle=orthogonalEdgeStyle;rounded=0;orthogonalLoop=1;jettySize=auto;html=1;" edge="1" parent="TYjafor36wQTe4I6JeaP-1" source="TYjafor36wQTe4I6JeaP-2" target="TYjafor36wQTe4I6JeaP-3">
          <mxGeometry relative="1" as="geometry" />
        </mxCell>
        <mxCell id="TYjafor36wQTe4I6JeaP-2" value="Начало" style="ellipse;whiteSpace=wrap;html=1;" vertex="1" parent="TYjafor36wQTe4I6JeaP-1">
          <mxGeometry x="354" y="20" width="120" height="80" as="geometry" />
        </mxCell>
        <mxCell id="TYjafor36wQTe4I6JeaP-6" value="" style="edgeStyle=orthogonalEdgeStyle;rounded=0;orthogonalLoop=1;jettySize=auto;html=1;" edge="1" parent="TYjafor36wQTe4I6JeaP-1" source="TYjafor36wQTe4I6JeaP-3" target="TYjafor36wQTe4I6JeaP-5">
          <mxGeometry relative="1" as="geometry" />
        </mxCell>
        <mxCell id="TYjafor36wQTe4I6JeaP-3" value="Ввод диапазона целых чисел" style="shape=parallelogram;perimeter=parallelogramPerimeter;whiteSpace=wrap;html=1;fixedSize=1;" vertex="1" parent="TYjafor36wQTe4I6JeaP-1">
          <mxGeometry x="354" y="140" width="120" height="60" as="geometry" />
        </mxCell>
        <mxCell id="TYjafor36wQTe4I6JeaP-8" value="" style="edgeStyle=orthogonalEdgeStyle;rounded=0;orthogonalLoop=1;jettySize=auto;html=1;" edge="1" parent="TYjafor36wQTe4I6JeaP-1" source="TYjafor36wQTe4I6JeaP-5" target="TYjafor36wQTe4I6JeaP-7">
          <mxGeometry relative="1" as="geometry" />
        </mxCell>
        <mxCell id="TYjafor36wQTe4I6JeaP-5" value="Ввод диапазона вещественных чисел" style="shape=parallelogram;perimeter=parallelogramPerimeter;whiteSpace=wrap;html=1;fixedSize=1;" vertex="1" parent="TYjafor36wQTe4I6JeaP-1">
          <mxGeometry x="329" y="240" width="170" height="60" as="geometry" />
        </mxCell>
        <mxCell id="TYjafor36wQTe4I6JeaP-10" value="" style="edgeStyle=orthogonalEdgeStyle;rounded=0;orthogonalLoop=1;jettySize=auto;html=1;" edge="1" parent="TYjafor36wQTe4I6JeaP-1" source="TYjafor36wQTe4I6JeaP-7" target="TYjafor36wQTe4I6JeaP-9">
          <mxGeometry relative="1" as="geometry" />
        </mxCell>
        <mxCell id="TYjafor36wQTe4I6JeaP-7" value="Ввод диапазона&lt;br&gt;&amp;nbsp;латинских букв" style="shape=parallelogram;perimeter=parallelogramPerimeter;whiteSpace=wrap;html=1;fixedSize=1;" vertex="1" parent="TYjafor36wQTe4I6JeaP-1">
          <mxGeometry x="329" y="330" width="170" height="60" as="geometry" />
        </mxCell>
        <mxCell id="TYjafor36wQTe4I6JeaP-12" value="" style="edgeStyle=orthogonalEdgeStyle;rounded=0;orthogonalLoop=1;jettySize=auto;html=1;" edge="1" parent="TYjafor36wQTe4I6JeaP-1" source="TYjafor36wQTe4I6JeaP-9" target="TYjafor36wQTe4I6JeaP-11">
          <mxGeometry relative="1" as="geometry" />
        </mxCell>
        <mxCell id="TYjafor36wQTe4I6JeaP-9" value="Активация функции&lt;br&gt;Randint и Uniform c диапазонами пользователя" style="whiteSpace=wrap;html=1;" vertex="1" parent="TYjafor36wQTe4I6JeaP-1">
          <mxGeometry x="354" y="420" width="120" height="60" as="geometry" />
        </mxCell>
        <mxCell id="TYjafor36wQTe4I6JeaP-14" value="" style="edgeStyle=orthogonalEdgeStyle;rounded=0;orthogonalLoop=1;jettySize=auto;html=1;" edge="1" parent="TYjafor36wQTe4I6JeaP-1" source="TYjafor36wQTe4I6JeaP-11" target="TYjafor36wQTe4I6JeaP-13">
          <mxGeometry relative="1" as="geometry" />
        </mxCell>
        <mxCell id="TYjafor36wQTe4I6JeaP-11" value="Вывод значений" style="shape=parallelogram;perimeter=parallelogramPerimeter;whiteSpace=wrap;html=1;fixedSize=1;" vertex="1" parent="TYjafor36wQTe4I6JeaP-1">
          <mxGeometry x="354" y="525" width="120" height="60" as="geometry" />
        </mxCell>
        <mxCell id="TYjafor36wQTe4I6JeaP-13" value="Конец" style="ellipse;whiteSpace=wrap;html=1;" vertex="1" parent="TYjafor36wQTe4I6JeaP-1">
          <mxGeometry x="354" y="650" width="120" height="60" as="geometry" />
        </mxCell>
      </root>
    </mxGraphModel>
  </diagram>
</mxfile>
